<?xml version="1.0" standalone="no"?>
<!DOCTYPE svg PUBLIC "-//W3C//DTD SVG 1.1//EN" "http://www.w3.org/Graphics/SVG/1.1/DTD/svg11.dtd" >
<svg xmlns="http://www.w3.org/2000/svg" xmlns:xlink="http://www.w3.org/1999/xlink" version="1.1">
<metadata>
Created by FontForge 20170731 at Thu Dec 20 19:55:46 2018
 By Aleksey,,,
(C) 2018 Copyright Webhance Studio
</metadata>
<defs>
<font id="Stickler-Pro" horiz-adv-x="368" >
  <font-face 
    font-family="Stickler Pro"
    font-weight="700"
    font-stretch="normal"
    units-per-em="1000"
    panose-1="0 0 8 0 0 0 0 0 0 0"
    ascent="800"
    descent="-200"
    x-height="384"
    cap-height="550"
    bbox="0 -216 825 634"
    underline-thickness="50"
    underline-position="-150"
    unicode-range="U+0020-007D"
  />
<missing-glyph horiz-adv-x="407" 
 />
    <glyph glyph-name=".notdef" horiz-adv-x="407" 
 />
    <glyph glyph-name=".null" horiz-adv-x="0" 
 />
    <glyph glyph-name="nonmarkingreturn" horiz-adv-x="333" 
 />
    <glyph glyph-name="space" unicode=" " horiz-adv-x="220" 
 />
    <glyph glyph-name="exclam" unicode="!" horiz-adv-x="128" 
d="M101 90h-75l-8 403h92zM29 -43q-14 14 -14 35t14 35t35 14t35 -14t14 -35t-14 -35t-35 -14t-35 14z" />
    <glyph glyph-name="quotedbl" unicode="&#x22;" horiz-adv-x="236" 
d="M16 514l-1 9q0 19 11.5 30.5t31.5 11.5t31.5 -11.5t11.5 -30.5l-1 -9l-17 -139h-50zM136 514l-1 9q0 19 11.5 30.5t31.5 11.5t31.5 -11.5t11.5 -30.5l-1 -9l-17 -139h-50z" />
    <glyph glyph-name="numbersign" unicode="#" horiz-adv-x="499" 
d="M15 357v-72h114v-106h-113v-72h113v-144h75v144h89v-144h76v144h115v72h-115v106h115v72h-115v137h-76v-137h-89v137h-75v-137h-114zM293 285v-106h-89v106h89z" />
    <glyph glyph-name="dollar" unicode="$" horiz-adv-x="352" 
d="M307.5 86.5q-29.5 -29.5 -86.5 -40.5v-103h-80v99q-69 6 -126 34l27 75q81 -28 127 -28q43 0 59 9q17 9 17 28q0 9 -5 18.5t-11 12.5q-14 7 -53 20q-53 15 -79.5 29t-46.5 38q-11 11 -16.5 32t-5.5 45q0 87 113 102v73h80v-72q45 -4 97 -20l-24 -74q-61 18 -102 18
q-40 0 -59 -8q-15 -7 -15 -23q0 -10 5 -20.5t14 -15.5q11 -7 58 -22q52 -15 78 -28.5t44 -34.5q9 -12 14.5 -31.5t5.5 -39.5q0 -43 -29.5 -72.5z" />
    <glyph glyph-name="percent" unicode="%" horiz-adv-x="518" 
d="M194.5 434.5q-27.5 31.5 -77.5 31.5q-48 0 -75 -30t-27 -81q0 -55 28 -86.5t78 -31.5q47 0 74 30.5t27 81.5q0 54 -27.5 85.5zM145 0l311 466h-87l-310 -466h86zM91 388.5q10 12.5 27 12.5q18 0 28 -13.5t11 -35.5q0 -22 -9.5 -35.5t-27.5 -13.5t-28.5 14t-10.5 38
q0 21 10 33.5zM475.5 197.5q-27.5 31.5 -77.5 31.5q-48 0 -75 -30t-27 -81q0 -55 28 -86.5t78 -31.5q47 0 74 30.5t27 81.5q0 54 -27.5 85.5zM371.5 150.5q9.5 13.5 27.5 13.5t28.5 -14t10.5 -38q0 -21 -10 -33.5t-27 -12.5q-18 0 -28 13.5t-11 35.5q0 22 9.5 35.5z" />
    <glyph glyph-name="ampersand" unicode="&#x26;" horiz-adv-x="545" 
d="M359 67q-55 -49 -94.5 -67t-92.5 -18q-42 0 -77.5 17t-57.5 47q-22 31 -22 74q0 50 25.5 89.5t96.5 99.5q-59 77 -59 139q0 56 37 88t101 32q63 0 97 -30.5t34 -87.5q0 -39 -19 -71.5t-67 -75.5l97 -109l87 94l64 -60l-91 -101l112 -127h-112zM180 474q-14 -11 -14 -29
q0 -19 8.5 -36.5t31.5 -46.5q54 45 54 84q0 18 -11.5 28.5t-32.5 10.5q-22 0 -36 -11zM234 79.5q25 13.5 65 53.5l-103 116q-53 -43 -73 -69t-20 -55q0 -28 19 -43.5t51 -15.5q36 0 61 13.5z" />
    <glyph glyph-name="quotesingle" unicode="'" horiz-adv-x="116" 
d="M16 514l-1 9q0 19 11.5 30.5t31.5 11.5t31.5 -11.5t11.5 -30.5l-1 -9l-17 -139h-50z" />
    <glyph glyph-name="parenleft" unicode="(" horiz-adv-x="214" 
d="M129.5 47q27.5 -97 69.5 -169l-60 -32q-124 199 -124 378q0 181 123 379l61 -33q-43 -75 -70 -171.5t-27 -176.5q0 -78 27.5 -175z" />
    <glyph glyph-name="parenright" unicode=")" horiz-adv-x="214" 
d="M85 398.5q-27 96.5 -70 171.5l61 33q123 -198 123 -379q0 -179 -124 -378l-60 32q42 72 69.5 169t27.5 175q0 80 -27 176.5z" />
    <glyph glyph-name="asterisk" unicode="*" horiz-adv-x="382" 
d="M160 434l-96 79l-49 -88l117 -42l-115 -44l49 -86l94 78l-20 -122h99l-16 122l93 -79l51 86l-116 42l114 45l-51 88l-92 -79l17 123h-99z" />
    <glyph glyph-name="plus" unicode="+" horiz-adv-x="394" 
d="M156 412v-143h-141v-84h141v-144h82v144h141v84h-141v143h-82z" />
    <glyph glyph-name="comma" unicode="," horiz-adv-x="144" 
d="M56 -9q-18 5 -29.5 20.5t-11.5 34.5q0 25 16.5 41t40.5 16q27 0 42 -19t15 -54q0 -17 -6.5 -29t-24.5 -31q-23 -26 -34.5 -43t-20.5 -41l-16 21z" />
    <glyph glyph-name="hyphen" unicode="-" horiz-adv-x="276" 
d="M261 180h-246v67h246v-67z" />
    <glyph glyph-name="period" unicode="." horiz-adv-x="144" 
d="M32 6q-17 17 -17 40t17 40t40 17t40 -17t17 -40t-17 -40t-40 -17t-40 17z" />
    <glyph glyph-name="slash" unicode="/" horiz-adv-x="318" 
d="M97 -55l206 625h-82l-206 -625h82z" />
    <glyph glyph-name="zero" unicode="0" horiz-adv-x="412" 
d="M347.5 406q49.5 -63 49.5 -175q0 -111 -50.5 -175t-139.5 -64q-91 0 -141.5 64t-50.5 175t50.5 174.5t141.5 63.5t140.5 -63zM281.5 110.5q25.5 42.5 25.5 120.5q0 77 -25.5 118.5t-75.5 41.5t-75.5 -41t-25.5 -119t25.5 -120.5t75.5 -42.5t75.5 42.5z" />
    <glyph glyph-name="one" unicode="1" horiz-adv-x="326" 
d="M311 70v-70h-257v70h86v320l-96 -41l-29 66l117 51h97v-396h82z" />
    <glyph glyph-name="two" unicode="2" horiz-adv-x="340" 
d="M19 441q77 34 146 34t112 -39t43 -104q0 -50 -22 -89t-83 -100l-71 -66h181v-77h-310v71l36 33q86 75 119 112q39 45 51 67t12 49q0 28 -19.5 43t-57.5 15q-26 0 -70 -13t-66 -26h-1v90z" />
    <glyph glyph-name="three" unicode="3" horiz-adv-x="315" 
d="M15 453q66 23 114 23q70 0 110.5 -34.5t40.5 -94.5q0 -36 -18.5 -65.5t-49.5 -45.5q88 -27 88 -112q0 -63 -44 -98.5t-120 -35.5q-57 0 -121 23v88q46 -19 68 -25t46 -6q86 0 86 57q0 37 -30 52.5t-98 15.5h-8v76q61 0 88 17t27 54q0 24 -17.5 38t-47.5 14
q-46 0 -114 -31v90z" />
    <glyph glyph-name="four" unicode="4" horiz-adv-x="406" 
d="M391 175v-74h-74v-102h-86v102h-216v58l203 307h99v-291h74zM121 175h110v173z" />
    <glyph glyph-name="five" unicode="5" 
d="M108 224l-37 -6l-15 10v238h280v-72h-200v-91l49 2q80 0 124 -41.5t44 -116.5q0 -76 -46.5 -116t-130.5 -40q-29 0 -77 10t-84 23l22 76q51 -17 79 -23.5t50 -6.5q55 0 79.5 19t24.5 61q0 78 -109 78q-32 0 -53 -4z" />
    <glyph glyph-name="six" unicode="6" 
d="M310 247.5q43 -39.5 43 -105.5q0 -70 -42.5 -111t-117.5 -41q-87 0 -132.5 57.5t-45.5 163.5q0 130 72 197t215 68l8 -80q-96 3 -147.5 -29.5t-60.5 -101.5q40 22 96 22q69 0 112 -39.5zM250 86q21 19 21 55q0 33 -19.5 51t-57.5 18q-51 0 -98 -33q4 -51 30 -80.5
t66 -29.5q37 0 58 19z" />
    <glyph glyph-name="seven" unicode="7" horiz-adv-x="331" 
d="M151 0h-85l157 391h-208v75h301v-59z" />
    <glyph glyph-name="eight" unicode="8" horiz-adv-x="352" 
d="M274.5 443q38.5 -32 38.5 -83q0 -33 -12.5 -55.5t-46.5 -52.5q43 -24 63 -53.5t20 -68.5q0 -64 -43.5 -102t-118.5 -38q-72 0 -116 37t-44 97q0 41 18 70.5t60 56.5q-33 27 -47 51t-14 58q0 49 39.5 82t101.5 33q63 0 101.5 -32zM128 388.5q-18 -13.5 -18 -34.5
q0 -23 15 -41.5t48 -36.5q33 18 47.5 35.5t14.5 41.5q0 23 -17 36t-45 13q-27 0 -45 -13.5zM238 81.5q23 19.5 23 51.5q0 30 -21 49.5t-67 35.5q-37 -10 -60.5 -34t-23.5 -54t23.5 -49t62.5 -19q40 0 63 19.5z" />
    <glyph glyph-name="nine" unicode="9" 
d="M307.5 419q45.5 -57 45.5 -164q0 -96 -29.5 -153.5t-92.5 -84.5q-66 -28 -178 -27l-5 76q3 -1 31 -1q91 0 136.5 30t54.5 94q-48 -20 -100 -20q-42 0 -77.5 19t-56.5 54q-21 34 -21 82q0 70 42.5 111t117.5 41q87 0 132.5 -57zM118 267q20 -21 56 -21q58 0 98 25
q-1 62 -26 94.5t-70 32.5q-37 0 -57.5 -18.5t-20.5 -54.5q0 -37 20 -58z" />
    <glyph glyph-name="colon" unicode=":" horiz-adv-x="138" 
d="M30.5 232.5q-15.5 15.5 -15.5 38.5t15.5 38.5t38.5 15.5t38.5 -15.5t15.5 -38.5t-15.5 -38.5t-38.5 -15.5t-38.5 15.5zM30.5 4.5q-15.5 15.5 -15.5 38.5t15.5 38.5t38.5 15.5t38.5 -15.5t15.5 -38.5t-15.5 -38.5t-38.5 -15.5t-38.5 15.5z" />
    <glyph glyph-name="semicolon" unicode=";" horiz-adv-x="159" 
d="M51.5 232.5q-15.5 15.5 -15.5 38.5t15.5 38.5t38.5 15.5t38.5 -15.5t15.5 -38.5t-15.5 -38.5t-38.5 -15.5t-38.5 15.5zM56 -9q-18 5 -29.5 20.5t-11.5 34.5q0 25 16.5 41t40.5 16t41.5 -15.5t17.5 -39.5q0 -30 -26 -56q-18 -20 -29.5 -38.5t-22.5 -46.5h-26z" />
    <glyph glyph-name="less" unicode="&#x3c;" horiz-adv-x="390" 
d="M365 42v84l-248 114l248 115v84l-340 -167v-64z" />
    <glyph glyph-name="equal" unicode="=" horiz-adv-x="444" 
d="M419 265v77h-394v-77h394zM419 107v77h-394v-77h394z" />
    <glyph glyph-name="greater" unicode="&#x3e;" horiz-adv-x="390" 
d="M25 355l248 -115l-248 -114v-84l340 166v64l-340 167v-84z" />
    <glyph glyph-name="question" unicode="?" horiz-adv-x="382" 
d="M310 462.5q-47 39.5 -125 39.5q-41 0 -79 -9.5t-81 -29.5l30 -80q65 35 121 35q44 0 67 -17t23 -47q0 -25 -12 -43.5t-48 -49.5q-33 -27 -49 -47.5t-27 -47.5q-13 -27 -13 -74v-16h92v16q0 38 14.5 64t56.5 61q32 28 45 43.5t22 37.5q10 21 10 59q0 66 -47 105.5z
M125 -62q-16 16 -16 39t16 39t39 16t39 -16t16 -39t-16 -39t-39 -16t-39 16z" />
    <glyph glyph-name="at" unicode="@" horiz-adv-x="736" 
d="M472 361q-55 20 -96 20q-90 0 -143 -55t-53 -148q0 -54 24 -97.5t66 -67.5q41 -23 86 -23q68 0 115 53q26 -53 91 -53q48 0 85 29t56 80q18 48 18 102q0 166 -87.5 254t-254.5 88q-96 0 -179 -44.5t-134 -124.5q-51 -81 -51 -186q0 -104 44 -185t122 -123q77 -41 161 -41
q76 0 144 21v78q-62 -20 -124 -20q-75 0 -133 32.5t-91 94.5q-34 61 -34 147q0 75 36.5 137t100.5 98q65 36 142 36q124 0 189 -67t65 -196q0 -63 -18 -101.5t-47 -38.5q-42 0 -42 72v245h-61zM297 278.5q27 33.5 77 33.5q41 0 74 -15v-190q-32 -41 -86 -41q-44 0 -68 32
t-24 87q0 60 27 93.5z" />
    <glyph glyph-name="A" unicode="A" horiz-adv-x="539" 
d="M15 0h96l55 145h203l56 -145h99l-207 550h-95zM197 233l70 206l70 -206h-140z" />
    <glyph glyph-name="B" unicode="B" horiz-adv-x="451" 
d="M15 0h174q122 0 184.5 39.5t62.5 110.5q0 48 -32 86t-84 49q72 44 72 122q0 66 -48.5 104.5t-141.5 38.5h-187v-550zM184 465q60 0 86.5 -17t26.5 -54q0 -36 -26.5 -53t-86.5 -17h-71v141h71zM177 242q81 0 124 -20q38 -21 38 -61q0 -42 -39 -59q-36 -16 -123 -16h-64
v155z" />
    <glyph glyph-name="C" unicode="C" horiz-adv-x="458" 
d="M443 531q-61 24 -135 24q-86 0 -153 -36t-104 -100q-36 -64 -36 -144q0 -79 35 -143.5t100 -102.5t153 -38q36 0 68.5 6t71.5 20v92l-4 -2q-75 -26 -119 -26q-95 0 -150 52.5t-55 142.5q0 54 23.5 98t66.5 69t101 25q40 0 65 -4t59 -18l13 -4v89zM443 109v-92v92z" />
    <glyph glyph-name="D" unicode="D" horiz-adv-x="510" 
d="M15 0h137q55 0 85 2t59 9q98 29 148.5 101t50.5 180q0 149 -119 220q-68 38 -175 38h-186v-550zM203 462q94 0 143 -46.5t49 -136.5q0 -33 -6.5 -60t-17.5 -43q-24 -48 -69.5 -67.5t-124.5 -19.5h-64v373h90z" />
    <glyph glyph-name="E" unicode="E" horiz-adv-x="391" 
d="M376 0v89h-263v146h233v89h-233v138h263v88h-361v-550h361z" />
    <glyph glyph-name="F" unicode="F" horiz-adv-x="386" 
d="M371 462v88h-356v-550h98v209h227v90h-227v163h258z" />
    <glyph glyph-name="G" unicode="G" horiz-adv-x="523" 
d="M268 307v-87h144v-117q-21 -12 -41 -16.5t-52 -4.5q-59 0 -105.5 25.5t-72.5 70.5q-27 45 -27 101q0 54 26 97t72 67q43 22 94 22q34 0 70.5 -10t68.5 -26l14 -6l41 75l-14 8q-85 49 -183 49q-86 0 -152 -37.5t-102 -104.5q-34 -64 -34 -138q0 -76 33.5 -139.5
t95.5 -102.5q64 -42 159 -42q131 3 205 66v250h-240z" />
    <glyph glyph-name="H" unicode="H" horiz-adv-x="491" 
d="M379 319h-266v231h-98v-550h98v230h266v-230h97v550h-97v-231z" />
    <glyph glyph-name="I" unicode="I" horiz-adv-x="128" 
d="M15 0h98v550h-98v-550z" />
    <glyph glyph-name="J" unicode="J" horiz-adv-x="329" 
d="M217 199q0 -59 -27.5 -87.5t-91.5 -28.5q-28 0 -51 6l-17 4l-15 -85l13 -5q34 -10 81 -10q108 0 156.5 51t48.5 155v351h-97v-351z" />
    <glyph glyph-name="K" unicode="K" horiz-adv-x="466" 
d="M15 550v-550h98v550h-98zM350 0h116l-233 284l217 266h-110l-219 -266z" />
    <glyph glyph-name="L" unicode="L" horiz-adv-x="390" 
d="M15 0h360v89h-262v461h-98v-550z" />
    <glyph glyph-name="M" unicode="M" horiz-adv-x="586" 
d="M15 0h98v415l138 -274h84l139 274v-415h97v550h-124l-152 -301l-149 301h-131v-550z" />
    <glyph glyph-name="N" unicode="N" horiz-adv-x="512" 
d="M15 0h98v409l265 -409h119v550h-99v-408l-266 408h-117v-550z" />
    <glyph glyph-name="O" unicode="O" horiz-adv-x="573" 
d="M149 521.5q-62 -35.5 -98 -99.5t-36 -147q0 -86 36 -151t102 -98q62 -33 131 -33q78 0 140.5 36.5t98.5 102.5q35 65 35 148q0 81 -35 145t-98 98q-61 34 -138 34q-76 0 -138 -35.5zM368.5 444q39.5 -22 63.5 -61q26 -44 26 -108q0 -61 -22.5 -105t-63.5 -65
q-43 -20 -82 -20q-49 0 -89 24t-63 69q-23 44 -23 103t22.5 102t63.5 64q37 19 82 19q46 0 85.5 -22z" />
    <glyph glyph-name="P" unicode="P" horiz-adv-x="436" 
d="M15 0h98v215q27 -3 44 -3q135 1 199.5 42t64.5 132q0 164 -226 164h-180v-550zM185 462q72 0 104.5 -17.5t32.5 -58.5q0 -47 -37.5 -66t-123.5 -19l-23 1l-25 2v158h72z" />
    <glyph glyph-name="Q" unicode="Q" horiz-adv-x="592" 
d="M501 99q57 74 57 181q0 81 -35 145t-98 98q-61 34 -138 34q-76 0 -138 -35.5t-98 -99.5t-36 -147q0 -86 36 -151t102 -98q62 -33 131 -33q91 0 158 49l78 -71l57 58zM368.5 444q39.5 -22 63.5 -61q26 -44 26 -108q0 -60 -26 -110l-108 103l-59 -62l108 -101
q-46 -20 -83 -20q-49 0 -89 24t-63 69q-23 44 -23 103t22.5 102t63.5 64q37 19 82 19q46 0 85.5 -22z" />
    <glyph glyph-name="R" unicode="R" horiz-adv-x="452" 
d="M15 0h98v215l44 -2q38 0 43 1l126 -214h111l-138 230q122 41 122 158q0 162 -226 162h-180v-550zM185 462q72 0 104.5 -17.5t32.5 -58.5q0 -47 -37.5 -66t-123.5 -19q-22 0 -48 3v158h72z" />
    <glyph glyph-name="S" unicode="S" horiz-adv-x="425" 
d="M358 537q-57 18 -125 18q-62 0 -110 -19.5t-74 -55.5q-27 -37 -27 -87q0 -86 84 -126q47 -21 93 -35q59 -19 85 -33q26 -15 26 -43q0 -15 -9.5 -29t-26.5 -23q-34 -19 -88 -19q-45 0 -165 48l-6 2l2 -105q58 -22 91.5 -30.5t66.5 -8.5q75 0 128.5 22t80.5 62q26 38 26 83
q0 43 -22.5 76.5t-63.5 52.5q-53 22 -95 35q-57 19 -82 33q-25 13 -25 41q0 30 30 48.5t81 18.5q31 0 60 -6t67 -20z" />
    <glyph glyph-name="T" unicode="T" horiz-adv-x="488" 
d="M15 462h180v-462h98v462h180v88h-458v-88z" />
    <glyph glyph-name="U" unicode="U" horiz-adv-x="480" 
d="M381 21.5q55 30.5 71 83.5q13 39 13 94v351h-98v-346q0 -26 -3 -47q-10 -36 -42 -55.5t-83 -19.5q-49 0 -81 19.5t-41 55.5q-5 32 -5 47v346h-97v-351q0 -63 17 -103t60 -70q50 -35 147 -35q87 0 142 30.5z" />
    <glyph glyph-name="V" unicode="V" horiz-adv-x="538" 
d="M216 0h117l190 550h-105l-139 -445l-153 445h-111z" />
    <glyph glyph-name="W" unicode="W" horiz-adv-x="840" 
d="M182 0h101l131 423l113 -423h102l196 550h-105l-138 -422l-108 422h-111l-133 -422l-110 422h-105z" />
    <glyph glyph-name="X" unicode="X" horiz-adv-x="532" 
d="M141 550h-111l180 -263l-195 -287h112l139 205l139 -205h112l-195 287l180 263h-113l-123 -182z" />
    <glyph glyph-name="Y" unicode="Y" horiz-adv-x="528" 
d="M209 249v-249h98v249l206 301h-110l-140 -213l-139 213h-109z" />
    <glyph glyph-name="Z" unicode="Z" horiz-adv-x="458" 
d="M34 462h267l-286 -401v-61h428v89h-296l294 402v59h-407v-88z" />
    <glyph glyph-name="bracketleft" unicode="[" horiz-adv-x="218" 
d="M15 611h188v-75h-107v-615h107v-75h-188v765z" />
    <glyph glyph-name="backslash" unicode="\" horiz-adv-x="317" 
d="M219 -55h83l-205 625h-82z" />
    <glyph glyph-name="bracketright" unicode="]" horiz-adv-x="218" 
d="M122 -79v615h-107v75h188v-765h-188v75h107z" />
    <glyph glyph-name="asciicircum" unicode="^" horiz-adv-x="380" 
d="M74 362l116 117l116 -117l59 56l-175 180l-175 -180z" />
    <glyph glyph-name="underscore" unicode="_" horiz-adv-x="362" 
d="M347 -83v58h-332v-58h332z" />
    <glyph glyph-name="grave" unicode="`" horiz-adv-x="264" 
d="M198 418l51 59l-169 157l-65 -74z" />
    <glyph glyph-name="a" unicode="a" horiz-adv-x="375" 
d="M259 92q-24 -14 -39.5 -18t-39.5 -4q-30 0 -47 13t-17 36t18 35t57 15l68 5v-82zM50 300q21 8 55.5 13t60.5 5q39 0 57 -6t25 -22q7 -14 7 -51l-75 -4q-77 -4 -118.5 -35.5t-41.5 -87.5q0 -51 37 -82.5t99 -31.5q67 0 112 36l1 -34h86v243q0 78 -40.5 112.5t-133.5 34.5
q-26 0 -65.5 -5.5t-65.5 -14.5v-70z" />
    <glyph glyph-name="b" unicode="b" horiz-adv-x="414" 
d="M20 0h75l1 31q51 -30 102 -30q93 0 144.5 53.5t51.5 146.5q0 65 -26 111.5t-72 67.5q-48 20 -89 20q-59 0 -91 -16v166h-96v-550zM296 196q0 -59 -29.5 -89.5t-84.5 -30.5q-38 0 -66 19v217q26 13 69 13q111 0 111 -129z" />
    <glyph glyph-name="c" unicode="c" horiz-adv-x="350" 
d="M330 371q-45 19 -111 19q-93 0 -146 -50t-53 -140t54.5 -145t144.5 -55q60 0 111 20v76q-37 -12 -54.5 -16t-40.5 -4q-53 0 -84.5 34.5t-31.5 89.5q0 57 29.5 86t86.5 29q23 0 40.5 -4t54.5 -16v76z" />
    <glyph glyph-name="d" unicode="d" horiz-adv-x="415" 
d="M299 374q-32 16 -91 16q-48 0 -89.5 -22t-68.5 -63q-30 -45 -30 -114q0 -86 53 -138t143 -52q52 0 103 30v-31h76v550h-96v-176zM299 302v-207q-28 -19 -66 -19q-54 0 -84 28t-30 82q0 129 111 129q43 0 69 -13z" />
    <glyph glyph-name="e" unicode="e" horiz-adv-x="388" 
d="M351 76q-39 -10 -115 -10q-121 0 -129 87h261v37q0 94 -47 147t-133 53q-48 0 -88 -24.5t-65 -69.5q-25 -46 -25 -106q0 -91 57.5 -145.5t155.5 -54.5q74 0 128 15v71zM251 290q22 -25 22 -70h-164q2 42 25 68.5t56 26.5q39 0 61 -25z" />
    <glyph glyph-name="f" unicode="f" horiz-adv-x="332" 
d="M321 544q-37 10 -80 10q-78 0 -117.5 -37.5t-39.5 -102.5v-30h-64v-75h64v-309h95v309h143v75h-143v33q0 29 22.5 45t61.5 16q24 0 58 -8v74z" />
    <glyph glyph-name="g" unicode="g" horiz-adv-x="415" 
d="M300 10q0 -51 -9.5 -76t-35.5 -40q-29 -17 -78 -17q-36 0 -96 20l-16 5l-26 -70l15 -6q60 -25 133 -25q102 0 155 50t53 141v392h-77l1 -34q-55 31 -116 31q-48 0 -88 -21t-66 -61q-29 -47 -29 -117q0 -86 53 -138t143 -52q21 0 38.5 4.5t45.5 15.5v-2zM299 291v-205
q-28 -19 -66 -19q-54 0 -84 28t-30 82q0 128 111 128q33 0 69 -14z" />
    <glyph glyph-name="h" unicode="h" horiz-adv-x="392" 
d="M260 283.5q16 -18.5 16 -59.5v-224h96v211q0 88 -32 129.5t-108 41.5q-60 0 -116 -25v193h-96v-550h96v281q54 21 91 21t53 -18.5z" />
    <glyph glyph-name="i" unicode="i" horiz-adv-x="162" 
d="M33 0h96v384h-96v-384zM38 467q-18 18 -18 43q0 26 18 43.5t43 17.5q26 0 43.5 -17.5t17.5 -43.5q0 -25 -17.5 -43t-43.5 -18q-25 0 -43 18z" />
    <glyph glyph-name="j" unicode="j" horiz-adv-x="193" 
d="M65 3q0 -50 -4.5 -71.5t-18.5 -36.5q-14 -17 -42 -32v-79l28 9q70 24 100.5 67t30.5 111v413h-94v-381zM69 467q-18 18 -18 43q0 26 18 43.5t43 17.5q26 0 43.5 -17.5t17.5 -43.5q0 -25 -17.5 -43t-43.5 -18q-25 0 -43 18z" />
    <glyph glyph-name="k" unicode="k" horiz-adv-x="389" 
d="M20 550v-550h96v550h-96zM126 211l152 -211h116l-155 211l148 173h-116z" />
    <glyph glyph-name="l" unicode="l" horiz-adv-x="214" 
d="M124 81q-10 15 -10 46v423h-94v-451q0 -108 98 -108q49 0 86 19v63q-21 -7 -46 -7q-24 0 -34 15z" />
    <glyph glyph-name="m" unicode="m" horiz-adv-x="615" 
d="M20 384v-384h95v284q33 12 51.5 16.5t32.5 4.5q31 0 46.5 -20.5t15.5 -57.5v-227h96v211q0 43 -7 70q31 13 51 18.5t38 5.5q30 0 45.5 -20.5t15.5 -57.5v-227h95v215q0 89 -30 130t-101 41q-62 0 -140 -39q-34 39 -99 39q-45 0 -100 -23l-14 -6l-11 -4l-2 31h-78z" />
    <glyph glyph-name="n" unicode="n" horiz-adv-x="392" 
d="M20 384v-384h95v282q58 21 93 21q34 0 51.5 -20.5t17.5 -57.5v-225h95v213q0 55 -10.5 88t-36.5 56q-31 27 -92 27q-65 0 -133 -33v33h-80z" />
    <glyph glyph-name="o" unicode="o" horiz-adv-x="435" 
d="M321 16.5q45 25.5 70 70.5q24 45 24 104q0 91 -53.5 145t-143.5 54t-144 -53.5t-54 -146.5q0 -57 24.5 -102t69.5 -71q44 -26 103 -26t104 25.5zM288 280.5q28 -34.5 28 -90.5q0 -57 -27 -90t-72 -33q-43 0 -70.5 33.5t-27.5 89.5t27.5 90.5t70.5 34.5t71 -34.5z" />
    <glyph glyph-name="p" unicode="p" horiz-adv-x="416" 
d="M20 384v-590h96v227q28 -11 45.5 -15.5t38.5 -4.5q91 0 143.5 49.5t52.5 134.5q0 66 -25 111.5t-71 67.5q-43 20 -87 20q-61 0 -116 -31l1 31h-78zM270.5 280q26.5 -28 26.5 -90q0 -59 -28.5 -86.5t-85.5 -27.5q-38 0 -66 19v199q36 14 69 14q58 0 84.5 -28z" />
    <glyph glyph-name="q" unicode="q" horiz-adv-x="416" 
d="M319 353q-55 31 -116 31q-48 0 -88 -21t-66 -61q-29 -47 -29 -117q0 -85 52.5 -134.5t143.5 -49.5q21 0 38.5 4.5t45.5 15.5v-227h96v589h-78zM299 294v-199q-28 -19 -66 -19q-57 0 -85.5 27.5t-28.5 86.5q0 62 26.5 90t84.5 28q33 0 69 -14z" />
    <glyph glyph-name="r" unicode="r" horiz-adv-x="278" 
d="M20 0h95v292q33 11 63 11q45 0 78 -18v94q-25 5 -43 5h-9q-73 0 -129 -23.5t-55 -75.5v-285zM18 380h40h13q-19 -6 -33.5 -17t-18.5 -22z" />
    <glyph glyph-name="s" unicode="s" horiz-adv-x="349" 
d="M34 14q66 -23 122 -23q84 0 128.5 31.5t44.5 86.5q0 38 -15 60t-39 33.5t-68 24.5l-20 6q-47 15 -58 22q-19 10 -19 26t15 23q19 8 59 8q35 0 98 -17v81q-58 14 -99 14q-83 0 -123 -27.5t-40 -77.5q0 -74 74 -107q30 -14 74 -27q39 -13 53 -20q16 -7 16 -21
q0 -19 -17 -28q-16 -9 -59 -9q-46 0 -127 28v-87z" />
    <glyph glyph-name="t" unicode="t" horiz-adv-x="315" 
d="M223 79q-63 0 -63 56v174h132h1v75h-133v110h-96v-110h-64v-75h64v-176q0 -70 31.5 -101t106.5 -31q13 0 37 4l53 13v72q-44 -11 -69 -11z" />
    <glyph glyph-name="u" unicode="u" horiz-adv-x="383" 
d="M363 -1v385h-94v-278q-41 -23 -84 -23q-35 0 -52.5 20.5t-17.5 58.5v222h-95v-209q0 -90 32 -132t108 -42q30 0 55 7.5t70 28.5l2 -38h76z" />
    <glyph glyph-name="v" unicode="v" horiz-adv-x="398" 
d="M293 384l-90 -283l-91 283h-107l148 -384h97l143 384h-100z" />
    <glyph glyph-name="w" unicode="w" horiz-adv-x="670" 
d="M201 105l-79 279h-102l137 -384h92l87 272l85 -272h91l138 384h-102l-79 -279l-81 279h-105z" />
    <glyph glyph-name="x" unicode="x" horiz-adv-x="430" 
d="M152 189l-125 -189h109l79 123l78 -123h117l-137 189l134 195h-112l-80 -133l-85 133h-110z" />
    <glyph glyph-name="y" unicode="y" horiz-adv-x="447" 
d="M182 -3l-87 -203h107l245 590h-100l-113 -295l-115 295h-109z" />
    <glyph glyph-name="z" unicode="z" horiz-adv-x="367" 
d="M20 300h179l-163 -251v-49h311l-1 81h-187l165 252l-1 51h-302z" />
    <glyph glyph-name="braceleft" unicode="{" horiz-adv-x="295" 
d="M275 517q-51 -11 -67 -38.5t-16 -77.5v-66q0 -71 -72 -121q72 -49 72 -121v-66q0 -48 12 -70q9 -20 23 -29t48 -18v-77l-2 -6q-75 10 -117 56t-42 121v77q0 39 -24 62.5t-70 29.5v82q46 6 70 29.5t24 62.5v77q0 75 42 121t117 56l2 -6v-78z" />
    <glyph glyph-name="bar" unicode="|" horiz-adv-x="160" 
d="M120 -189h-80v821h80v-821z" />
    <glyph glyph-name="braceright" unicode="}" horiz-adv-x="295" 
d="M22 601q75 -10 117 -56t42 -121v-77q0 -39 24 -62.5t70 -29.5v-82q-46 -6 -70 -29.5t-24 -62.5v-77q0 -75 -42 -121t-117 -56l-2 6v77q34 9 48 18t23 29q12 22 12 70v66q0 72 72 121q-72 50 -72 121v66q0 44 -10.5 68.5t-32.5 34.5q-25 9 -40 13v78z" />
  </font>
</defs>
</svg>
